<svg width="170" height="170" viewBox="0 0 170 170" fill="none" xmlns="http://www.w3.org/2000/svg">
  <path d="M61 36C67 26 80 24 89 31C97 38 99 49 94 57C89 66 77 75 61 87C45 75 33 66 28 57C23 49 25 38 33 31C42 24 55 26 61 36Z" fill="#F4539B"/>
  <path d="M114 72C120 64 132 63 139 70C146 76 148 86 143 94C138 102 128 110 114 120C100 110 90 102 85 94C80 86 82 76 89 70C96 63 108 64 114 72Z" fill="#D72674"/>
  <circle cx="40" cy="122" r="11" fill="#FFCBE3"/>
  <circle cx="136" cy="42" r="8" fill="#FFDCEC"/>
</svg>
